<svg width="16" height="16" viewBox="0 0 16 16" fill="none" xmlns="http://www.w3.org/2000/svg">
  <path d="M9 10C9 9.44772 9.44772 9 10 9H15C15.5523 9 16 9.44772 16 10V15C16 15.5523 15.5523 16 15 16H10C9.44772 16 9 15.5523 9 15V10Z" fill="#3C3F41" stroke="#3C3F41" stroke-width="2" stroke-linejoin="round"/>
  <path d="M9 10C9 9.44772 9.44772 9 10 9H15C15.5523 9 16 9.44772 16 10V15C16 15.5523 15.5523 16 15 16H10C9.44772 16 9 15.5523 9 15V10Z" fill="#3C3F41"/>
  <path fill-rule="evenodd" clip-rule="evenodd" d="M9 10C9 9.44772 9.44772 9 10 9H15C15.5523 9 16 9.44772 16 10V15C16 15.5523 15.5523 16 15 16H10C9.44772 16 9 15.5523 9 15V10ZM10 10H15V11H10V10ZM10 12V15H15V12H10Z" fill="#CED0D6"/>
</svg>
