<svg version="1.1" id="Layer_1" xmlns="http://www.w3.org/2000/svg" x="0px" y="0px" viewBox="0 0 122.88 122.88"
     style="enable-background:new 0 0 122.88 122.88" xml:space="preserve">
<g>
    <circle cx="61.44" cy="61.44" r="58" fill="#fff" />
    <path d="M122.88,61.44c0,33.93-27.51,61.44-61.44,61.44C27.51,122.88,0,95.37,0,61.44C0,27.51,27.51,0,61.44,0 C95.37,0,122.88,27.51,122.88,61.44L122.88,61.44z M88.3,22.73c-6.24,0.21-11.69,3.66-15.75,8.41c-4.49,5.22-7.48,11.41-9.63,17.72 c-3.85-3.16-6.82-7.24-13-9.02c-4.78-1.37-9.79-0.81-14.4,2.63c-2.18,1.63-3.69,4.09-4.4,6.42c-1.85,6.02,1.95,11.39,3.67,13.31 l3.77,4.04c0.78,0.79,2.65,2.86,1.74,5.83c-0.99,3.23-4.88,5.31-8.87,4.09c-1.78-0.55-4.34-1.87-3.77-3.74 c0.24-0.77,0.78-1.34,1.08-1.99c0.27-0.57,0.4-0.99,0.48-1.25c0.73-2.38-0.27-5.47-2.81-6.26c-2.38-0.73-4.81-0.15-5.75,2.91 c-1.07,3.48,0.6,9.79,9.51,12.53c10.44,3.22,19.28-2.47,20.53-9.89c0.79-4.64-1.31-8.1-5.15-12.53l-3.13-3.47
c-1.89-1.89-2.55-5.12-0.58-7.6c1.66-2.1,4.01-2.99,7.88-1.94c5.64,1.53,8.15,5.44,12.35,8.6c-1.73,5.68-2.86,11.39-3.89,16.5 l-0.63,3.81c-3,15.72-5.29,24.36-11.24,29.32c-1.2,0.85-2.91,2.13-5.49,2.22c-1.36,0.04-1.79-0.89-1.81-1.3
c-0.03-0.95,0.77-1.39,1.3-1.81c0.8-0.43,2-1.15,1.91-3.46c-0.08-2.72-2.34-5.08-5.6-4.97c-2.44,0.08-6.16,2.38-6.02,6.58
c0.14,4.35,4.19,7.6,10.3,7.4c3.26-0.11,10.55-1.44,17.73-9.98C67,86.07,69.34,74.85,71.1,66.64l1.96-10.84
c1.09,0.13,2.26,0.22,3.53,0.25c10.41,0.22,15.62-5.17,15.7-9.1c0.05-2.37-1.56-4.71-3.81-4.66c-1.61,0.04-3.64,1.12-4.12,3.35
c-0.48,2.18,3.31,4.16,0.35,6.08c-2.1,1.36-5.87,2.32-11.18,1.54l0.97-5.34c1.97-10.12,4.4-22.57,13.62-22.87
c0.67-0.03,3.13,0.03,3.19,1.66c0.02,0.54-0.12,0.68-0.76,1.93c-0.65,0.97-0.89,1.8-0.86,2.74c0.09,2.58,2.05,4.28,4.9,4.18
c3.8-0.13,4.9-3.83,4.83-5.73C99.25,25.35,94.54,22.53,88.3,22.73L88.3,22.73z"/>
    <text x="123" y="123" font-family="Courier New, monospace" font-size="100" fill="#FFA500" text-anchor="end" dominant-baseline="auto">#</text>
</g>
</svg>